<?xml version="1.0" standalone="no"?>
<!DOCTYPE svg PUBLIC "-//W3C//DTD SVG 20010904//EN"
 "http://www.w3.org/TR/2001/REC-SVG-20010904/DTD/svg10.dtd">
<svg version="1.0" xmlns="http://www.w3.org/2000/svg"
 width="656.000000pt" height="656.000000pt" viewBox="0 0 656.000000 656.000000"
 preserveAspectRatio="xMidYMid meet">
<metadata>
Created by potrace 1.11, written by Peter Selinger 2001-2013
</metadata>
<g transform="translate(0.000000,656.000000) scale(0.100000,-0.100000)"
fill="#000000" stroke="none">
<path d="M3477 6554 c-1 -1 -65 -4 -142 -8 -77 -3 -158 -8 -180 -11 -22 -3
-58 -7 -80 -10 -22 -2 -51 -6 -65 -9 -14 -3 -42 -7 -64 -11 -83 -12 -238 -47
-337 -76 -57 -16 -111 -32 -119 -34 -21 -5 -211 -73 -235 -85 -11 -5 -47 -21
-80 -35 -178 -79 -365 -181 -525 -288 -58 -39 -107 -73 -110 -76 -3 -3 -31
-25 -63 -49 -141 -105 -376 -328 -497 -472 -30 -36 -58 -67 -61 -70 -3 -3 -32
-41 -65 -85 -32 -44 -62 -81 -66 -83 -5 -2 -8 -8 -8 -14 0 -6 -13 -27 -28 -47
-36 -47 -142 -218 -142 -230 0 -5 -6 -16 -13 -23 -12 -13 -104 -196 -145 -288
-47 -109 -132 -348 -148 -421 -2 -11 -6 -27 -8 -37 -2 -9 -9 -37 -16 -62 -7
-25 -14 -54 -16 -65 -2 -11 -6 -31 -9 -45 -3 -14 -8 -36 -11 -50 -3 -14 -7
-38 -9 -53 -2 -15 -7 -45 -10 -67 -6 -43 -10 -74 -22 -165 -9 -75 -9 -506 0
-600 8 -84 25 -205 32 -235 1 -3 5 -27 10 -55 5 -27 10 -52 10 -55 1 -3 5 -23
9 -45 4 -22 10 -47 13 -55 3 -8 8 -24 10 -35 3 -18 15 -61 60 -210 31 -103
113 -301 182 -445 48 -98 161 -293 174 -298 4 -2 7 -8 7 -13 0 -13 200 -291
230 -319 3 -3 24 -28 47 -55 49 -60 216 -230 293 -299 92 -82 102 -90 185
-154 44 -34 85 -67 92 -72 29 -23 196 -131 277 -179 106 -63 346 -184 346
-175 0 4 6 2 13 -4 32 -27 375 -147 477 -167 8 -2 44 -11 80 -20 73 -19 150
-33 330 -60 29 -5 129 -14 210 -20 118 -9 317 -6 365 5 316 77 393 489 125
672 -60 41 -98 55 -181 64 -30 3 -57 8 -61 10 -4 2 -9 1 -12 -4 -3 -5 -20 -7
-38 -5 -18 1 -78 5 -133 8 -111 6 -165 11 -211 19 -17 3 -46 8 -65 10 -28 4
-157 31 -194 40 -5 2 -23 6 -40 10 -263 66 -617 233 -840 399 -353 262 -613
567 -803 942 -87 172 -175 422 -206 585 -2 14 -9 48 -15 75 -26 130 -35 238
-35 440 0 198 8 300 34 430 5 28 12 61 14 75 19 99 91 337 107 355 5 5 9 15 9
22 0 30 134 302 204 413 133 213 342 457 515 600 29 25 59 50 65 55 33 30 166
125 175 125 6 0 11 5 11 10 0 6 7 10 15 10 8 0 15 4 15 8 0 5 10 14 23 20 12
7 49 28 82 47 65 39 300 155 312 155 5 0 41 14 82 30 71 29 218 76 271 86 14
3 63 13 110 24 47 10 110 21 140 24 30 4 69 9 85 11 17 3 53 7 81 9 l52 5 28
-62 c15 -34 28 -65 29 -69 2 -5 4 -10 5 -13 1 -3 3 -8 4 -12 1 -5 10 -26 20
-48 18 -40 71 -170 140 -340 44 -107 49 -118 72 -170 10 -22 19 -42 19 -45 1
-3 9 -22 18 -44 9 -21 17 -41 17 -43 0 -3 7 -20 15 -39 25 -58 41 -94 94 -224
28 -69 57 -136 63 -150 6 -14 12 -27 13 -30 2 -6 7 -19 67 -165 28 -66 56
-133 63 -150 12 -28 72 -175 90 -220 5 -11 7 -23 7 -27 -1 -5 2 -8 8 -8 5 0
10 -8 10 -18 0 -10 3 -22 8 -26 4 -4 7 -11 8 -14 0 -4 6 -18 11 -32 6 -14 34
-81 62 -150 29 -69 56 -134 61 -145 5 -11 21 -49 36 -85 14 -36 31 -76 37 -90
6 -14 11 -27 12 -30 1 -3 6 -16 12 -30 6 -14 27 -65 47 -114 20 -48 47 -114
60 -145 13 -31 41 -96 61 -146 20 -49 44 -106 52 -125 8 -19 19 -44 24 -55 4
-11 20 -49 35 -85 14 -36 32 -78 38 -95 28 -65 59 -141 66 -160 5 -11 15 -36
23 -55 9 -19 47 -111 85 -205 39 -93 78 -187 86 -207 9 -21 16 -39 16 -40 0
-2 22 -54 49 -116 27 -61 47 -112 45 -112 -2 0 5 -17 16 -37 10 -21 37 -85 60
-143 23 -58 50 -123 60 -145 10 -22 66 -157 125 -300 59 -143 112 -271 118
-285 6 -14 11 -27 12 -30 3 -10 111 -271 131 -317 8 -18 20 -48 28 -65 7 -18
19 -46 26 -63 8 -16 14 -32 15 -35 11 -52 87 -142 155 -185 84 -53 255 -71
322 -33 13 7 25 13 28 13 19 3 72 40 109 76 102 100 135 253 86 394 -14 39
-30 81 -36 95 -15 32 -10 19 -139 330 -61 146 -112 270 -114 275 -1 6 -10 27
-19 49 -9 21 -17 40 -17 41 0 1 -10 24 -22 51 -12 27 -23 54 -24 59 -2 8 -94
230 -124 300 -51 117 -77 185 -72 189 3 3 1 6 -5 6 -6 0 -13 10 -16 22 -5 22
-70 186 -87 219 -5 9 -30 68 -56 130 -25 63 -51 125 -57 139 -6 14 -11 27 -12
30 -1 3 -9 22 -18 44 -9 21 -17 40 -17 43 0 2 -12 30 -26 61 -14 31 -36 84
-49 118 -13 34 -28 70 -34 80 -5 10 -33 75 -60 144 -27 69 -66 163 -86 210
-20 47 -43 101 -50 120 -12 31 -92 225 -114 275 -5 11 -23 54 -39 95 -41 99
-131 317 -147 355 -7 17 -29 71 -50 120 -20 50 -43 104 -50 120 -7 17 -55 131
-105 255 -51 124 -101 243 -111 266 -10 22 -27 65 -39 94 -12 29 -30 74 -42
99 -11 25 -21 50 -23 56 -1 5 -9 26 -17 45 -9 19 -41 98 -73 175 -31 77 -63
155 -71 173 -8 17 -20 47 -28 65 -7 17 -20 48 -29 67 -8 19 -27 67 -42 105
-15 39 -35 88 -45 110 -9 22 -27 65 -40 95 -12 30 -26 62 -30 71 -4 8 -20 47
-35 85 -32 81 -45 112 -74 176 -11 26 -21 50 -21 53 0 3 -9 27 -21 53 -12 26
-26 58 -32 72 -23 51 -83 122 -132 155 -71 46 -137 64 -240 62 -48 -1 -87 -3
-88 -3z"/>
</g>
</svg>
